# xmcd
#
# Track frame offsets:
# 150
# 19717
# 42902
# 64605
# 90272
# 110775
# 139502
#
# Disc length: 2115 seconds
#
#
# Revision: 3
# Processed by: cddbd v1.5.2PL0 Copyright (c) Steve Scherf et al.
# Submitted via: FreeRIP 2.951 
#
DISCID=51084107
DTITLE=夏川里美 - 南風
DYEAR=2003
DGENRE=Musical
TTITLE0=淚\\光閃閃
TTITLE1=童神
TTITLE2=黃金之花
TTITLE3=IRAYOI月夜海濱
TTITLE4=鳳仙花
TTITLE5=花(周華健『花心』原曲)
TTITLE6=淚\\光閃閃(沖繩方言版)
EXTD=
EXTT0=
EXTT1=
EXTT2=
EXTT3=
EXTT4=
EXTT5=
EXTT6=
PLAYORDER=
